<svg xmlns="http://www.w3.org/2000/svg" width="1200" height="800" viewBox="0 0 1200 800"><g fill="none" stroke="#F7F4EE" stroke-opacity="0.10" stroke-width="1" vector-effect="non-scaling-stroke"><path d="M320,240 C370,238 410,262 414,300 C418,340 372,364 322,362 C272,360 230,336 228,298 C226,262 270,242 320,240 Z"></path><path d="M318,210 C392,206 452,246 458,300 C464,356 396,394 320,392 C244,390 184,352 182,296 C180,244 244,214 318,210 Z"></path><path d="M316,176 C414,170 496,226 504,298 C512,374 420,426 318,424 C216,422 134,370 132,294 C130,224 218,182 316,176 Z"></path><path d="M314,138 C440,130 546,202 556,296 C566,396 448,462 314,460 C180,458 76,392 74,292 C72,200 188,146 314,138 Z"></path><path d="M312,96 C470,86 602,174 614,292 C626,418 480,502 310,500 C140,498 10,416 8,290 C6,174 154,106 312,96 Z"></path><path d="M950,90 C1000,88 1040,110 1044,144 C1048,180 1002,202 950,200 C898,198 858,178 856,142 C854,110 900,92 950,90 Z"></path><path d="M948,50 C1024,46 1088,86 1094,142 C1100,202 1026,240 948,238 C870,236 806,198 804,140 C802,88 872,54 948,50 Z"></path><path d="M946,4 C1050,-2 1140,54 1148,138 C1156,228 1052,286 944,284 C836,282 748,226 746,136 C744,56 842,10 946,4 Z"></path><path d="M944,-46 C1078,-54 1194,18 1204,132 C1214,254 1080,332 942,330 C804,328 690,254 688,130 C686,20 810,-38 944,-46 Z"></path><path d="M0,640 C160,600 340,668 520,636 C700,604 880,664 1060,632 C1150,616 1200,624 1200,624"></path><path d="M0,700 C180,660 380,724 560,694 C740,664 920,720 1100,690 C1160,680 1200,686 1200,686"></path><path d="M0,760 C200,724 400,780 600,752 C800,724 1000,776 1200,748"></path></g></svg>