<svg xmlns="http://www.w3.org/2000/svg" viewBox="0 0 1440 900" aria-hidden="true">
<path fill="none" stroke="currentColor" stroke-width="1" d="M906.1 150L910 145.5L920 144.9L922.6 150L924.9 160L926.3 170L923.8 180L920 184.4L910 182.1L908.6 180L905.3 170L904.3 160ZM464.9 200L470 194.1L480 193.8L490 199.3L510 213.2L516.7 220L519.5 230L510 239.8L499.4 240L477.9 230L466 220L461.5 210ZM477.4 690L480 685.9L490 685.5L496.7 690L505.6 700L508.3 710L512 720L519.6 730L530 739.6L540 745.4L550 745.6L555.4 740L561.6 730L569.4 720L570 719.5L580 719L590 725.6L592.9 730L595.9 740L595.2 750L590 757L586.4 760L580 763L570 766.3L560 771.3L550.3 780L540 786.5L530 790L520 790.4L510 787.9L500 782.2L490 772L481.7 760L476 750L472.2 740L470.5 730L470.9 720L473.8 700Z"/>
<path fill="none" stroke="currentColor" stroke-width="1" d="M892.7 120L910 118L920 117.5L930 118.1L936.3 120L940 122.2L946.1 130L947.6 140L945.7 170L944 180L940.7 190L934.4 200L930 205.2L920 211.6L910 213L900 209.8L891.4 200L880 176.9L870 166.5L860 164.3L848.3 170L840 178.4L830 175.3L828.2 170L826.4 160L826.4 150L830 141L831.2 140L840 137.6L850 137.2L860 135.9L880 125.2L890 120.7ZM458.6 160L460 156.9L470 154.1L480 161L500 184.4L505.9 190L520 200.9L530 209.7L536.4 220L539.7 230L540 240L533.7 250L530 252.3L520 255.4L510 256L500 254.4L490 250.7L467.3 240L460 235.6L453.1 230L450 226.1L446.4 220L443.5 210L443.9 200L447.2 190L455.2 170ZM149.2 220L150 219.1L160 218.5L161.7 220L162.1 230L160 231.5L150 235.1L146.3 230ZM1065 350L1070 345.5L1080 344.4L1084.7 350L1080 355.4L1072.6 360L1070 360.7L1067.9 360ZM470.2 630L480 625.4L490 622.6L500 629.3L500 634.7L498.3 650L501.6 660L510 667.7L520 670.5L530 669.1L550 664.5L560 665.1L570 670.8L580 681.4L590 689.7L600 695.2L611 700L623.5 710L629.1 720L632.2 730L645.4 750L648.3 760L647.2 770L642.4 780L640 783.2L630 789.7L620 790.2L610 787.6L600 786.8L590 789.4L580 796.1L570 804.7L560 809.7L550 810.9L530 809.6L520 807.7L510 804.3L500 799L490 790L470 763.5L460 754.3L450.7 750L440 742.9L437.4 740L440.3 730L445.8 720L449.9 710L452.2 700L454.9 680L455.5 670L455.6 650L458.7 640L470 630.2Z"/>
<path fill="none" stroke="currentColor" stroke-width="1" d="M366.7 0L362 10L360 12.7L353.3 20L340 30.5L332.9 40L329.4 50L332.6 60L340 66.3L350 68.2L360 66.2L370 60.6L382.1 50L387.5 40L391 30L396.6 20L406.7 10L421.1 0M1409.5 40L1410 38.9L1410 40.9ZM398.2 80L400 78.1L410 77.6L416.7 90L419.8 100L412.4 110L400 111.1L395.5 110L390 106.6L385.1 100L387.3 90L390 86.3ZM1440 138.7L1430 140.7L1426.3 140L1420 138.4L1404.8 130L1396.9 120L1394.5 110L1396.9 100L1403.8 90L1410 83.1L1420 81.4L1430 90.5L1440 104.7M860.1 110L870 104L880 101.5L910 104.9L930 105.4L940 106.9L949.8 110L963.6 120L970 131.9L975.9 140L980 148.6L981.7 150L980 152.4L977.1 160L970 165.7L960 182.2L951.6 200L940 219L930 232.1L920 237.1L910 236.8L890 234.7L880 232.8L860 223.3L830 212.7L820 208.1L804.6 200L800 194.9L796.9 190L798.5 180L802.1 170L804.8 160L808.1 140L810 134.5L812.4 130L820 122.5L825.2 120L830 118.1L850 114.1L860 110ZM440.4 120L450 118.6L460 122.7L470 131.1L500 164.8L510 174.9L530 191.3L539.2 200L547.1 210L552.7 220L556.4 230L557.8 240L556.3 250L551 260L540 268.1L530 271.3L520 272.2L510 270.8L500 267.5L480 256.9L460 248.1L450 242.2L440 230.9L434.7 220L431.5 210L430.6 200L432.2 190L438.1 170L439.2 160L436.8 130L440 120.2ZM1346.6 140L1350 137L1359.6 140L1354.8 150L1350 151.1L1347.6 150ZM1039.4 160L1040 159L1050 156.2L1055.9 160L1060 161.8L1072.9 170L1094.8 180L1100 184.6L1103.8 190L1102.6 200L1095.5 210L1090 214.8L1080 218.9L1070 218.4L1060 214.9L1050.9 210L1042.2 200L1039.1 190L1039 170ZM152.8 180L160 174.7L170 179L200.1 220L203.1 230L201.3 240L200 241.5L190 248.7L186.4 250L170 253.5L160 256.9L150 261.7L140 265.5L130 265.7L121.9 260L120 255.8L118.6 250L119 240L123 220L126.3 210L132.7 200L150 181.5ZM754.3 220L760 214.8L770 214L773.9 220L776.4 230L777.9 240L778.1 250L772.9 260L770 262.1L760 266.5L750 267.5L740 264.5L734.9 260L733.9 250L738.2 240L750 223.6ZM1409.8 250L1420 249.1L1422.7 250L1430 254.1L1435.1 270L1435.6 280L1433 290L1426.5 300L1420 305.2L1410 308.8L1400 307.6L1390 303.2L1385 300L1375.3 290L1372.4 280L1375.7 270L1380 264.3L1390 256.1L1400 252ZM656.7 290L660 289.5L661.7 290L670 294.8L680 305.2L690 312.3L700 316.8L711.8 320L730 327.2L733.7 330L730 333.2L720 337.1L690 332.4L659.8 330L650 327.4L640 322.9L636.2 320L633.2 310L638.5 300L650 291.4ZM863.7 330L870 320.8L880 320.6L883 330L885.2 340L886.1 350L884.3 360L880 367.8L877.6 370L870 374.5L860 375.7L850 372.8L844.3 370L842 360L847.9 350L860 333.8ZM1050.5 330L1060 324.4L1070 322.5L1080 322.2L1090 322.9L1100 324.8L1118.7 330L1120 330.8L1127.4 340L1123.9 350L1120 353.7L1097.7 370L1090 375.1L1080 380.3L1070 383.3L1060 383.5L1050 380.5L1037.9 370L1035.4 360L1038 350L1042.8 340L1050 330.4ZM779.9 350L790 345.8L800 346.1L809 350L818.4 360L819.3 370L810.4 380L800 385.5L790 388.6L780 385.1L775.5 380L773 370L774.4 360ZM87.4 420L90 417.7L100 415.6L105.5 420L108.9 430L110.7 440L114.7 450L140 479.6L150 487.3L160 487.7L190 476.7L200 474.9L220 472.8L230 473.4L240 476.2L247.2 480L248.9 490L242.5 500L230 513.7L220 522L190.5 540L180 543.3L170 543.2L161.2 540L150 531.9L140 526.3L130 527.6L120 533.2L110 540L100 544.4L90 546.6L80 544.4L74.8 540L71.3 530L72.9 510L72.1 500L70 492L68.4 480L68.9 470L70 464.2L74.8 450L80 429.3ZM1085.9 570L1090 565L1100 562L1110 565.1L1120 569.1L1130 569.4L1140 566.6L1150 565.8L1151.9 570L1150.1 580L1143.9 590L1140 599.3L1130 595.8L1120 589.4L1110 592.1L1100 593.3L1090 590.7L1084.1 580ZM644.7 900L649 890L648.1 880L644.7 870L635.5 850L630 834.6L625.7 830L620 827.2L610 827.2L590 833.6L580 835.8L570 836.2L560 835.1L540 830.5L510 819.7L500 814.8L490 808.1L482.7 800L470 779.6L460 770.4L450 766.4L440 765.5L420 767.5L410 766.8L402.8 760L403 750L407.8 740L421.6 720L427.5 710L430.7 700L431.1 690L430 686L426.9 680L420 675.5L400 668.7L378.1 660L370 654.7L364.6 650L357.2 640L353.5 630L353.9 620L360 605.7L370 597.7L380 599.9L400 609.4L410 613.4L420 614.7L460 610.3L470 608L490 601.5L500 600.7L510 604.8L515.7 610L522.1 620L525 630L528.8 640L530 641.1L540 642.1L550 641.2L560 641.7L570 646.7L590 668.5L600 675.6L610 679L630 682.8L640 686.9L650 695.3L662 710L667.1 720L669.4 730L669.2 740L664.6 770L660 783.3L650 803.4L645.6 810L645.4 820L650 822.3L660 825.8L670 828.2L680 829.9L690 829L700 822.4L710 811.5L720 797.6L730 791.8L740 792.4L750 796.4L757.1 800L768.7 810L771 820L769 830L765.8 840L761.2 850L753.1 860L740 871L727.9 880L719.2 890L719.7 900M1124.8 620L1130 614.8L1140 631L1143.6 640L1152 650L1163.2 660L1169.7 670L1170.5 680L1168 690L1157.9 710L1149.6 730L1143.9 740L1140 744.4L1130 749.2L1120 747.6L1110.2 740L1105.2 730L1102.2 720L1102.1 710L1105.8 700L1111.3 690L1115.1 680L1116.7 670L1116.7 660L1113.5 640L1114.8 630L1120 621.8ZM175.9 900L180 895.7L190 893.1L196.6 900"/>
<path fill="none" stroke="currentColor" stroke-width="1" d="M470.3 0L450 16.9L444.2 20L440 23.8L435 30L435.1 40L441.1 60L445.8 70L450 75.5L465.9 90L470 96.8L473.8 110L477.9 120L483.6 130L491.1 140L500 149.8L510 158.6L530 173.2L540 182.4L556.5 200L560 204.4L565.7 210L572.2 220L574.6 230L574.1 240L572 250L567.8 260L560 271.2L550 280L540 285.6L530 289.3L520 291L510 289.3L500 283.7L496 280L480 268.2L470 262.8L450 254.1L440 246.2L435.2 240L429.3 230L424.8 220L417.8 200L415.4 190L415 180L417 170L417.9 160L413.8 150L410 146.4L390 139.3L380 133.8L360 118.9L346.8 110L340 103.8L315.8 70L311 60L309.7 50L312.5 40L318.9 30L341.8 0M1366.6 0L1369.8 10L1371.5 30L1373.9 40L1377.4 50L1379.6 60L1375 70L1370 73.7L1350 81.6L1340 88.5L1327.5 100L1321.7 110L1318.3 140L1315 150L1310 159.1L1299.2 170L1298.5 180L1300 181.1L1310 184.3L1320 184L1340 177.4L1360 172.5L1370 170.7L1380 169.4L1390 169.2L1400 171L1409.5 180L1394.6 220L1390 227.2L1380 235.6L1370.1 240L1360 245.4L1355.2 250L1351.1 260L1350 266.7L1349.7 270L1350.4 280L1354.7 290L1363.3 300L1380 312.3L1390 317.6L1400 321L1410 322.1L1420 320.4L1430 314.9L1440 306M856.9 80L860 77.3L870 72.8L880 74.8L900 89.6L910 92.7L960 97.9L970 98.1L990 97.1L1000 99.5L1020 111.6L1040 117.1L1050 122.6L1060 132.9L1070 144.8L1080 154.4L1090 160.6L1110.6 170L1121.3 180L1125.3 190L1125 200L1121.1 210L1115.2 220L1110.9 230L1110.9 240L1113.9 250L1115.9 260L1112.2 270L1110 272.9L1100 276.1L1090 270.7L1079.1 250L1070.9 240L1036.5 220L1024.4 210L1020 204.7L1010 196.1L1000 192.8L990 192.9L980 195.7L970 202.7L960 215.6L952.6 230L939.8 270L940.7 280L961 300L964 310L960 317.6L950 317.5L940 313.8L930 311.3L920 311.5L910 318L903.9 330L901.6 340L899 360L895.4 370L889.1 380L880 388.6L876.5 390L870 392.3L860 392.7L830 389L820 391L800 399.2L790 402.1L780 402.3L770 398.4L760.5 390L753.8 380L750 372.6L747.8 370L740 363.6L700 352.7L690 351L660 349.1L650 347.5L640 344.4L630.2 340L620 333.7L615.3 330L608.9 320L609.5 310L614.4 300L620 291.3L629.2 280L640 272.1L650 268L660 265.7L670 264.3L690 263.1L700 259.6L710 251.1L730 227.3L750 200.1L760 191.6L770 185.2L776.4 180L780 176.8L785.3 170L790.9 160L793.8 150L798.1 130L803.5 120L810 113L814.4 110L820 106.5L836.1 100L840 97.9L850 89.1ZM139.4 140L150 134.2L160 135.3L170 138.9L180 145.2L185.8 150L194.6 160L198.9 170L200.5 180L203.4 190L209.1 200L216.2 210L220.9 220L222.7 230L222.8 240L220.3 250L210 258.8L207.2 260L200 262.1L170 268.2L165.4 270L150 278.4L140 283.1L130 284L120 280.7L110 272.6L107.9 270L103.8 260L103.4 250L106.1 230L107.2 210L109.2 200L116.3 190L125.9 180L132 170L134.7 160L136.1 150ZM1440 205.1L1434.8 200L1430 193.1L1426.3 190L1420 180.8L1413.9 180L1419.1 170L1440 159.6M806.6 240L810 232.2L820 233.6L830.3 240L833.1 250L832.3 260L832.3 270L833.8 280L834.6 300L834.2 310L830.2 320L820 323.7L800 322.2L790 320.3L780 313.4L776.9 310L774.5 300L780 292.8L782.6 290L800.4 280L813.4 270L816 260L810 248.4ZM1043.1 300L1050 297.5L1060 298.3L1070 300.7L1080 301.5L1100 300.8L1110 302.1L1120 304.7L1130 308.6L1140 315.9L1142.3 320L1145.3 330L1145.2 340L1142.8 350L1140 356.2L1137.5 360L1130 369.2L1117.3 380L1110 387.1L1100 393.8L1088.1 400L1080 407.1L1070 410.2L1060 406.7L1016.1 380L1004.7 370L1001.7 360L1007.3 350L1016.7 340L1020 335.2L1030 314.3L1032.7 310L1040 301.4ZM117.6 360L120 357.7L130 353.3L140 353.1L149.4 360L148.8 370L143.7 380L137.6 390L133.7 400L132 420L132.4 430L134.5 440L140 451.7L150 461.8L160 464L170 461L185 450L190 445.5L200 440.6L210 438.3L220 439.3L240 446.8L260 452.9L270 456.7L280 463.1L288.4 470L297.5 480L300 490L290 499.4L288.7 500L270 504L260 508.1L250 516L236.9 530L230 536L206 550L200 552.9L190 556.2L180 557.8L170 557.7L160 555.2L140 546.4L130 546.1L120 549.4L100 557.7L90 560.4L80 560.3L70 556.3L61.1 550L54.8 540L54.8 530L57.9 510L57.5 500L54.7 480L54 470L54.7 460L56.7 450L59.6 440L63.6 430L70 417.9L80 405.5L90 396.5L98.9 390L108.3 380L112.7 370ZM350 460L360 454.2L370 455.2L375.5 460L380 467.3L381.2 470L380 475L377.2 480L370 483.3L360 482.8L353.5 480L350 476.9L346.1 470ZM1093 500L1100 497L1105.9 500L1107.6 510L1105.5 520L1106.2 530L1116.5 540L1120 541.6L1130 543.6L1140 541.8L1150 537.2L1162.7 530L1171.7 520L1177.2 510L1180 506.5L1190 499.6L1200 497.7L1210 497.9L1216.5 500L1220 506.1L1220.9 510L1213.8 520L1200 530.4L1190 539.2L1184.5 550L1172.6 580L1170.4 590L1169.5 600L1169.5 610L1170.7 620L1175.1 630L1189.3 650L1191.9 660L1190.7 670L1181.3 700L1176.3 720L1173.2 730L1169.3 740L1164.9 750L1160 758.2L1158.6 760L1150 766.4L1140 769.5L1130 768.6L1120 764.9L1110 758.2L1102.9 750L1096.6 740L1083 710L1081.3 700L1085.1 690L1092.2 680L1096.5 670L1096.6 660L1093.6 650L1090 641.9L1070 610.4L1065.4 600L1062.6 590L1062.4 580L1065.3 560L1065.9 550L1062.6 540L1055.8 530L1052 520L1060 512.4L1067.4 510L1080 507.3L1090 501.6ZM597 520L600 515.7L610 510.7L611 520L610 521.9L600 527.6ZM560.9 900L570 891.2L580 884.7L590 885L600 890.6L610 894.4L620 893.2L624.5 890L628.3 880L625 870L620 861.9L610 854.9L600 854.3L590 856.1L580 856.4L530 843.6L520 839.4L490 823.7L480 816.8L473.5 810L462.5 790L460 786.9L450 780.4L440 779.5L430 781.6L400 793.8L390 795.8L380 794.3L375.5 790L374 780L374 770L372.4 760L368.8 750L366.7 740L370 734.7L380.5 730L390 726.9L398.4 720L400 718.1L404.4 710L406 700L402.5 690L390.4 680L370 670.4L360 664.3L355 660L335.6 640L330 630L330.8 620L340.7 600L344.9 590L350 573.9L360 553.8L370 545.7L380 544.5L390 551.3L397.8 560L410 570.4L420 576.3L450 588.9L460 590.8L470 589.6L490 580.8L500 577.8L510 581.4L530 600.7L540 607.5L550 609.4L560 607.9L570 604.8L580 605.7L582.3 610L585.2 620L587.2 630L590.4 640L596.8 650L600 653.5L610 659.3L630 661.5L640 665L650 673.5L671.9 700L680 711L684.7 720L687 730L686.8 740L685.4 750L679.4 780L678.3 790L680 796L690 797.4L700 787.7L705.6 780L710 776.5L720 772.9L730 773.2L740 775.5L770 785.7L790 789.9L800 795.3L804.5 800L807.6 810L804.4 820L790 837L772.9 860L752.2 880L745.3 890L743.5 900M1440 582.9L1430 579.7L1420 578.4L1400 582.9L1390 584.5L1383.5 580L1385.5 570L1390 564.9L1395.7 560L1400 557.7L1410 553.7L1420 550.5L1430 549.8L1440 552.2M1288 660L1290 657.6L1300 652.7L1310 652.6L1330 655.8L1350 657L1357.6 660L1360 661.6L1366 670L1370.5 680L1368.8 690L1360 696L1350 696.6L1320 690L1310 686.6L1296.5 680L1287.5 670ZM153 900L159.3 890L164.5 880L170 872.1L180 860.9L190 852.5L200 850.1L205.2 860L208 880L210.4 890L213.8 900"/>
<path fill="none" stroke="currentColor" stroke-width="1" d="M0 4.5L3.2 0M318 0L310 12.2L300 21.4L288.3 30L284.8 40L286.9 50L291.2 60L296.9 70L310 90L314.5 100L320 115.8L322.2 120L330 129.7L350 136.5L360 142.5L367.2 150L373.4 160L378.1 170L383.9 180L392 190L400 197.3L409.7 210L424.8 240L430 248.6L440 259.6L450 265.4L461.8 270L470 274.2L477.9 280L500 304.4L510 310.8L520 313.7L530 314L540 310.8L550 303.2L552.1 300L560 292.8L571.2 280L578.9 270L585.6 260L590 248.9L599.4 230L622 200L625.8 190L620 180.1L610 183.4L590 193.2L580 194.7L570 192L560 184.9L540 162.2L530 155.7L520 150.7L510 144.5L500 135.3L495.9 130L490.5 120L488.4 110L489.2 90L487.3 80L480 66.5L473.5 60L468.1 50L468.7 40L472 30L476.5 20L483.6 10L490 4.6L496.8 0M1312.5 0L1320 6.3L1330 12.2L1338.4 20L1342.7 30L1344.7 40L1344.6 50L1340.5 60L1333.5 70L1314.9 90L1308.4 100L1305.6 110L1303.5 130L1298.7 140L1290 148L1280 155.5L1275.1 160L1268.4 170L1266.4 180L1267.2 190L1270 196.9L1272.1 200L1280 204.4L1300 209.9L1310 215.9L1314.1 220L1320.5 230L1325.6 240L1328.8 250L1335.5 280L1339.6 290L1350 303.7L1360 313L1370 320.9L1380 327.7L1390 332.3L1400 334.8L1410 335.5L1420 334L1430 329.3L1440 321.7M203.3 30L210 25.9L220 21.9L230 20.6L240 23.4L248 30L249.6 40L246.8 50L241.6 60L234.2 70L230 73.9L220 80.5L210 82.9L200 81.1L169.1 60L173.2 50L180 46.8L188.6 40L200 32.3ZM861.5 60L870 58L880 57.9L887.4 60L890 61.2L910 77.9L920 81.6L940 84.2L950 84.6L960 83.9L980 79.8L990 79.1L1000 80.3L1040 92.4L1050 97.9L1060 108.3L1075 130L1083.7 140L1090 145.4L1097.5 150L1110 155.8L1120 161.9L1129.2 170L1137 180L1141.7 190L1143.8 200L1144 210L1141.8 230L1144.6 240L1150 250.2L1160 265.2L1164.2 270L1168.3 280L1161 300L1159 310L1157.9 330L1156.5 340L1154 350L1150.2 360L1133.9 390L1130 401L1125.4 410L1120 418.8L1102.8 440L1100 445.8L1095.8 450L1090 459.3L1080 453.2L1077.4 450L1070 444.9L1040 416.3L1030 407.8L1018.7 400L1000.2 390L984.6 380L976 370L970 357.2L965.2 350L960 346.2L950 340.9L940 337.2L930 335.8L919.8 340L915.4 350L909 370L904.7 380L894.8 400L890 407.4L880 410.5L870 409.8L830 402.5L820 403.2L790 412.5L780 413.6L770 412L760 407.5L750.3 400L740 390.2L730 381.8L710.7 370L700 365.9L690 363.9L680 363.7L660 366.3L650 367L640 365.1L620 354.8L610 348.8L596.9 340L586.9 330L586.1 320L590 312.9L590.9 310L614.3 270L620 264L626.2 260L630 258.4L640 255.4L663.8 250L690 241L700 235.9L710 229.1L720 219.2L740 190L750 180.5L764.5 170L770 164.9L774.1 160L779.6 150L784.4 130L789 120L796.3 110L800 105.8L810 96.7L830 83.1L843.8 70L850 65.7L860 60.4ZM0 561.3L11.4 550L20 543.7L23.7 540L30 535.7L40 523.4L41.7 520L45.1 510L46 500L42.5 470L42.6 460L44.1 450L46.8 440L50.6 430L55.4 420L62 410L77.1 390L82.8 380L84.2 370L82.3 360L81.4 350L85.8 340L90 335.6L97.6 330L113.5 320L119.2 310L115.9 300L110 294.7L96.4 280L89.8 270L86.2 260L86.4 250L88.3 240L89.3 230L86.4 220L80 208.3L78.6 200L81.4 190L90 178.5L102.7 170L110 161.7L110.9 160L112.4 150L112.6 140L113.8 130L120.9 120L130 115.6L140 113.2L150 113.1L180 119.1L190 123.5L200 135.4L210 149.7L216.3 160L225.6 180L230 187.9L242.1 200L247.1 210L243.6 230L243 250L241.9 260L240 265.1L237.1 270L230 277.5L220 281.7L200 283.5L190 287.8L186.7 290L189.4 300L201.5 320L208.2 330L213 340L212.7 350L210 356.4L206.6 360L200 364.5L190 366.1L180 370.6L170 380.2L162.8 390L158.2 400L158.8 410L160 412.4L170 417.1L180 414.8L200 405.4L210 405.5L240 419.6L250 422.4L270 423.8L280 427.4L290 438.2L299.5 450L310 455.9L320 454.4L330 447.5L338 440L340 437.3L345.1 430L350 419.4L360 414.8L370 419.2L380 427.1L390 437.3L415.5 470L421.3 480L421.4 490L416.3 500L412.4 510L411.8 520L412.9 530L415.5 540L420 549.1L430 558.1L440 561.9L450 562.6L455.6 560L460 556.4L463.5 550L470 534.1L472.8 530L480 523.1L490 523L500 527.9L510 535L530 546.4L540 547.5L545.5 540L550 536L553.8 530L560 524.6L563.9 520L570 515.3L580 505.6L595.5 490L603.8 480L608 470L608.3 460L607.6 450L610 441.6L611.2 440L620 435.5L630 438.9L634.7 450L640.2 460L646.8 470L650 473.2L662.8 490L668.9 500L670.7 510L670 511.2L660 519.1L650 522.6L640 528.3L638.4 530L635.1 540L636.1 550L638.6 560L640.1 570L638.8 580L632.1 600L631.9 610L634.7 620L645.9 640L650 645.7L664.5 670L671.1 680L695.6 710L700.9 720L704 730L706.3 740L710 747.9L711.6 750L720 754.8L733.2 760L760 768.7L770 770.6L780 770.6L790 768.7L800 768.2L810 773.9L820 784.8L831.1 800L836.8 810L840 817.9L844 820L850 824.9L858.1 820L870 817.9L880 817.3L890 818.6L893.7 820L900 823.9L905.8 830L908.6 840L905.2 850L900 857L890 860.6L880 855.9L870 848.6L856 840L850 833.4L840 831.5L830 837.4L815 850L800 870.4L790 877L780 880L770 887.8L768.2 890L770 899.9L780 899.1L790 892.8L795.6 890L800 884.1L810 882.7L820 888.3L830.6 900M1358.4 190L1360 189.3L1370 188L1376.1 190L1380 194.4L1381.8 200L1380 207.6L1378.8 210L1370 216L1360 215.2L1352.1 210L1349.4 200L1350 199.1ZM985.3 220L990 218.7L1000 221.2L1020 234.2L1032.5 240L1045 250L1044.3 260L1040 262.5L1019.4 270L1007.7 280L1000 291.8L996.5 290L990 288.2L983.5 280L980 277.4L974 270L970 264.3L968.3 260L966.8 250L967.9 240L970 234L972.2 230L980 221.8ZM1440 745.3L1430 741.9L1427.6 740L1412.6 720L1410 717.8L1400 714.8L1390 715.9L1380 719.3L1370 724.3L1360 731.2L1350 736.8L1340 738.2L1330 730.3L1325.6 720L1317.2 710L1299 700L1279.1 690L1270 683.8L1265 680L1257.7 670L1252.4 660L1250 656.7L1240 652.6L1230 654.2L1220 661.4L1210 672.9L1200 688.3L1196.2 700L1193.6 730L1190 747.8L1186.7 760L1182.1 770L1180 772.3L1170 779.7L1150 790L1140 791.6L1130 787.2L1110 772.7L1097.6 760L1091.1 750L1080 729.9L1065.6 710L1060.9 700L1060.1 690L1063.1 680L1068.2 670L1071.4 660L1069.6 650L1064.9 640L1050 612.3L1042.6 600L1040 590L1042.4 580L1046 570L1047 560L1044.2 550L1032.4 530L1027.8 520L1026.7 510L1030 503.7L1033.2 500L1040 497L1060 492.4L1070 488.3L1079.1 480L1086.4 470L1090 460.7L1100 462.3L1131.8 480L1140 486.2L1150 488.5L1160 486.6L1180 480.8L1220 473.7L1230 472.9L1240 476L1243.6 480L1249.7 490L1260 517.7L1270 519.7L1280 520.8L1290 524.3L1296.6 530L1300 535.4L1304.8 550L1310.1 560L1320 568L1330 573.2L1340 577.2L1350 575.2L1360 564L1370 548.5L1378.2 540L1380 538.6L1390 533.7L1410 527.5L1420 527L1440 530.7M0 578.3L10 577.9L20 571.7L30 564.3L40 561.8L50 563L70 570.5L80 572.5L90 572.1L100 569.6L120 562.7L130 560.8L140 562L160 568.5L170 569.5L180 569.3L200 567.6L210 564.6L230 552.9L240 545.9L260 527.1L270 521.3L280 519.2L320 517.7L330 520.6L335.3 530L337.5 540L338.4 550L338 560L336.5 570L334 580L330.5 590L324.9 600L317.3 610L310.9 620L308.2 630L310.6 640L319.8 650L332.1 660L341.6 670L348.6 680L350 685.1L352.8 690L343.2 720L340.8 730L339.7 740L340.2 750L343.1 770L343.4 780L344.7 790L348 800L355.5 810L360 813.5L370 817.9L380 819.1L390 818.3L400 816.6L410 814L420 808.4L431.8 800L440 797.8L446.4 800L450 802.5L454 810L460.7 820L470 827.4L491.7 840L505.3 850L510 855.2L520 861.9L530 864.9L540 867.1L546.7 870L548.2 880L540 890.7L530 896.6L520 896.8L510 895.8L504.1 900M1240 530L1250 525.8L1257.3 530L1260 537.6L1261.1 550L1261.2 560L1260 570.8L1250 578.4L1230 583L1220 588.9L1210 596.1L1200 599.8L1189.9 590L1191.5 580L1197 570L1200 565.8L1215.5 550L1230 537.2L1240 530ZM1337.6 600L1340 597.8L1350 601.6L1354.3 610L1355.7 620L1350 628.2L1347.4 630L1340 632.2L1330 631.8L1325.5 630L1320.7 620L1326 610L1330 605.3ZM1415.5 610L1420 609.3L1421.4 610L1428.7 620L1425.2 630L1422.6 640L1422.1 650L1420.9 660L1420 663.1L1416.6 670L1410 677.7L1400 676.4L1390 666.1L1386.4 660L1382.8 650L1382.7 640L1388.1 630L1400 619.2L1410 611.6ZM122.2 900L131.4 890L135.3 880L137.7 870L140 865.3L145.5 860L160 852.7L170 844.1L180 833L183.5 830L190 825.6L200 823.8L210 828.1L217.1 840L219.8 850L220.7 880L223.2 890L227.7 900M1242.3 900L1238.2 890L1219.2 870L1217.4 860L1222.6 850L1230 842.2L1233.5 840L1240 837.7L1250 838.8L1252.5 840L1262.2 850L1266.4 860L1270 866.3L1280 870L1290 867.5L1310 854.1L1320 852.5L1330 856.7L1340 863.3L1350 868L1370 871.1L1380 873.5L1388.9 880L1391.7 890L1391.6 900"/>
<path fill="none" stroke="currentColor" stroke-width="1" d="M0 25.7L10 19.1L18.8 10L22.9 0M0 533.1L10 525.6L20 519.9L30.4 510L33.6 500L33.7 490L31.1 470L31.2 460L34.5 440L37.3 430L41.2 420L46.7 410L60.1 390L62.9 380L60 368.6L50 362.5L40 363.1L30 360.6L29.8 360L40 352.1L41.3 350L50 344.4L53.2 340L60 333.9L73 320L81.7 310L84.2 300L79.5 290L70 278.1L60 260.6L57.3 250L57.4 240L61 210L63.1 200L66.8 190L82.4 160L85.5 150L86.6 130L87.8 120L90.7 110L97.4 100L100 97.4L120 85.4L125.5 80L130 71.3L137.6 50L145.5 40L150 36.6L160 31.7L180 24.1L187.8 20L210 3.5L216.6 0M1036.6 0L1030 4.3L1024.4 10L1017 20L1014.2 30L1015.4 40L1018.5 50L1013.9 60L1010 61.1L990 62.7L980 64.6L960 70L950 71.2L940 70.6L930 67.8L920 62.3L910 53.8L904.3 50L900 48.1L890 46L880 45.7L870 46.7L860 49L850 52.6L834.7 60L817.5 70L810 75.5L800 86.3L789.3 100L770.7 120L763.6 130L754.1 150L745.9 160L740 165.1L730 176L713.9 200L710 204.9L700 212.2L680 219.9L660 231.8L650 234.9L640 235.9L630 230.8L629.6 230L634.9 220L653 200L657.9 190L660.6 180L661.6 170L659.7 160L650 150.6L630 144.9L610 136.9L600 136.5L596.6 140L595.9 150L594.3 160L590 166.1L585.5 170L580 172.5L570 170.8L561.1 160L554.6 150L550 146L540 141.3L530 138.2L520 134.2L510 127.3L504.8 120L502 110L502.7 90L501.9 80L500 70.7L496.6 60L494.3 50L493.4 40L494.3 30L498.5 20L509.2 10L520 5.5L530 3.4L550 3.2L560 2.5L570.7 0M605.9 0L620 5.2L630 6.6L660 7.3L670 8.7L700 15.1L710 15.8L720 13.4L723.9 10L726.9 0M1054.2 0L1060 5.8L1062.3 10L1066.8 20L1070.1 30L1070.6 40L1067.6 50L1063.4 60L1061.2 70L1062 80L1065.6 90L1071.3 100L1080 113.9L1090 126.8L1100 134.8L1120 147.5L1130 156.2L1143.6 170L1151.3 180L1160 194.5L1170 206.5L1175.6 210L1180 214.1L1190 217.7L1200 216.1L1207.3 210L1210 208.5L1240 180.3L1255.1 160L1264.5 150L1280 136.3L1286 130L1290.7 120L1295.6 100L1300 90.1L1310 75.8L1314.8 70L1321.2 60L1324 50L1322.5 40L1316.1 30L1289.5 0M249.6 80L260 72.4L270 71.2L280 76.5L290 86L293.1 90L300 101.3L303.1 110L305.5 120L309.2 140L310 142L316.5 150L320 152.2L340 155.6L350 160.6L360 172.8L371.6 190L381.3 200L390 206.6L400 215.6L409.5 230L420 250.9L430 266.4L440 274.3L460 282.2L470 289.4L478 300L490 320.7L500 331.7L510 337.2L518.1 340L530 342.8L560 348.2L570 351.4L580 356.2L586.1 360L601.1 370L613.8 380L620.7 390L622 400L613.8 410L610 412.3L600 420.7L591.9 430L587.2 440L586.3 450L587.3 460L587.4 470L583.7 480L575.5 490L570 494.8L560 500.6L550 504.1L540 506.2L530 507.3L520 506.6L510 503.9L500.3 500L468 490L460 484.6L456.5 480L446.7 470L430 455.9L424.1 450L409.3 430L399.1 420L380 405.5L360 387.9L350 381.5L340 378.6L320 377.2L310 379.6L304.3 390L290 393.7L260 403.8L250 404.7L240 402.3L235.8 400L230 394.8L225.9 390L224.7 380L228 370L237 350L239.7 340L239 330L235.5 320L233.6 310L236.9 300L240 296.3L250 280.7L255 270L258 260L262.1 240L269.6 220L271.4 210L270 200L264.6 190L260 184.6L240 167.9L230 156.4L218.7 140L213.5 130L210.8 120L211.2 110L217.8 100L240 86.3ZM1440 514.6L1429.2 510L1420 505L1410 501.3L1400 500.6L1390 501.2L1380 500.3L1350 492.6L1340 492.1L1330 494.4L1320 498.7L1310 502L1300 501.6L1290 498.8L1280 492.6L1277.6 490L1273.6 480L1272.6 460L1268.9 450L1260 443.2L1253.8 440L1230 432.8L1220 431.4L1210 436.3L1207.4 440L1202.9 450L1200 453L1190.8 460L1180 463.6L1170 466.1L1160 467.5L1150 467.1L1140 464L1133.5 460L1126.2 450L1126.7 440L1140 410L1147.5 390L1160.5 360L1163.9 350L1171.7 320L1176.5 310L1193.6 290L1200.2 280L1210 252.3L1212.4 250L1220 246.7L1240 242.6L1250 238.6L1270 229.1L1280 225.9L1290 225.5L1300 229.4L1310 239.9L1315 250L1323.4 280L1328.1 290L1340 307.2L1359.6 330L1367.5 340L1370 344L1376.2 350L1380 354.7L1390 359.3L1400 359.6L1410 358.8L1420 357L1430 351.7L1440 343.1M918.5 900L917.9 890L919.7 880L924.3 870L930.7 860L935.7 850L934.4 840L928.9 830L921.3 820L910.1 810L900 805L890 801.9L870 797.1L860 793.6L853.6 790L850 787.5L840 777.9L830 765.6L820 751.5L810 742.4L800 739.3L796.5 740L790 741.8L778.2 750L770 753.7L760 754.1L750 751.7L745.5 750L740 747.2L730 740.4L723.1 730L718.7 720L713.3 710L705.6 700L687.4 680L681 670L672.6 650L660.4 630L655.1 620L652.3 610L652.4 600L657.5 580L660.8 550L670 540.3L680 535.7L687.3 530L690 526.3L693.1 520L692.3 510L686.9 500L670.1 480L662.8 470L657.1 460L653.9 450L653.2 440L654.4 430L657.4 410L660.3 400L667.4 390L680 382.7L690 381.5L700 384.9L730 404L740 411.6L750 418.1L760 421.9L770 423.9L780 424.4L790 423.2L810 417.8L820 416.5L830 417.8L850 425.4L860 427.6L890 431.9L900 432.4L908.6 430L910 429.1L915 420L915.6 400L917.9 390L920 385.3L930 371.3L940 368.7L950 375.5L953.7 380L960 386.1L970 394.7L1001.7 410L1020 424.7L1041.5 440L1051.5 450L1057.1 460L1057.8 470L1050 477.6L1040 480.9L1030 481.3L1020 479.1L1008.2 470L1003.8 450L1000 444.8L990 444.4L986.2 450L989.3 460L997.7 470L1000 475.2L1003.4 480L1002.1 510L1003.2 520L1007.6 530L1019.9 550L1014.8 560L1010 561.7L1001.7 560L990 555.2L980 559.8L975.1 570L976 580L985.7 590L990 593.1L997.2 600L1010 608.1L1020 613L1030 619.1L1039.6 630L1044.3 640L1046.7 650L1046.7 660L1044.4 680L1044.6 690L1046.3 700L1050.1 710L1056.7 720L1070 736.3L1084.2 760L1092 770L1113.2 790L1122.4 800L1130 810.2L1140 819.7L1150 820L1159 810L1170 800.3L1195.9 790L1200 786.6L1203.3 780L1207 750L1211.2 730L1213.2 710L1216.1 700L1220 694.7L1230 689.5L1240 690.3L1250 694.4L1283 710L1296.8 720L1301.9 730L1302.3 740L1305.6 750L1310 753.6L1320 758.2L1330 759.4L1340 758.5L1350 755.5L1370 744.9L1380 740.9L1390 740.3L1400 744.6L1420 763.9L1430 768.6L1440 769.3M1397.1 400L1400 397.5L1410 393.9L1420 398.4L1425.6 410L1429 420L1428.5 430L1420 436.5L1410 435.3L1393.3 430L1390 427.8L1382.4 420L1386.3 410L1390 405.6ZM0 609.4L20 600.1L40 585.9L50 582.5L60 582.6L80 584.3L90 583.5L120 577.9L130 578.3L150 584.1L160 584L180 581.1L210 580.8L220 577.7L260 546.8L270 540.6L280 537.7L290 536.9L300 537.2L311.3 540L320 547.9L321.1 550L323.4 560L323.1 570L320.8 580L315.8 590L310 597.8L298.7 610L291.3 620L285.2 630L281.5 640L276.3 660L270 665.9L260 670.3L250 671.2L230 666.7L220 666.2L214.5 670L211.6 680L215.2 690L220 698.2L230 709.8L240.4 720L253.1 740L262.8 750L280 763.2L300 771.3L310 776L320 785.5L336.9 810L350 823.2L360 829.1L370 831.7L390 833.3L400 834.9L410 838.2L430 847.6L440 850.7L450 850.6L460 849.6L470 851.2L480 858L481.8 860L485.7 870L486 880L484.6 890L482 900M0 652.1L8.8 670L11.1 680L8.8 690L0 697.9M290.6 680L300 670.9L310 672.7L317.8 680L320 683L322.3 690L324.3 700L325.4 710L325 720L322 730L320 733.5L310 738.4L300 735.9L292.6 730L284.9 720L282.4 710L283.6 700L290 681.1ZM100.5 900L109.2 890L114.9 880L117.2 870L119 850L120 846.4L123.4 840L130 832.4L140 828.4L150 825.9L170 813.3L177.3 810L190 807.6L200 807.6L210.7 810L220 817.1L221.9 820L226 830L228.5 840L229.7 850L230.2 870L231.9 880L236.2 890L243.4 900M1214.3 900L1200 889.1L1183.5 870L1177.4 860L1176.7 850L1180 846.8L1190 842.5L1200 839.3L1210 833.4L1220 825L1230 821L1240 820.8L1250 822.8L1269.8 830L1280 835.1L1290 835.9L1310 829L1320 827.5L1330 829.5L1340 835.1L1350 842.1L1360 847.2L1380 852.2L1390 855.9L1397.3 860L1410 870L1418.3 880L1420 883.5L1430 892.5L1440 890.8"/>
<path fill="none" stroke="currentColor" stroke-width="1" d="M0 41.5L10 35.3L32.4 20L40 13.9L47 10L50 6.6L57.8 0M0 350.4L10 343.2L40 317.2L47.1 310L52.5 300L53.2 290L50.9 280L39.7 250L38.4 240L39.6 230L42.9 220L50.7 200L65.2 170L68.5 160L70.3 150L70.5 130L71.2 120L73.2 110L76.1 100L80 90.2L90 75.7L97.1 70L104.9 60L108.1 50L110.1 40L117.5 30L140 15.2L150.7 10L161.1 0M759.9 0L758 10L756.9 20L750.5 30L740 34.7L730 36.6L720 36.1L710 34L700 31.2L670 19.3L660 17.1L650 16.5L620 17.8L610 16.3L590 11.9L580 12.8L560 17.2L540 18.3L530 19.9L520 24.9L515.1 30L510.4 40L508.9 50L509.4 60L511.3 70L518.2 100L520 104.9L524.6 110L530 113.6L540 116.6L550 118.4L560 118.7L570 116.8L580 113.6L590 111.9L600 113.3L610 117.4L630 129.1L640 133.2L660 139.5L670 146.8L673.1 150L678 160L680 169.8L683.3 180L690 186.3L700 184.1L710 174.8L720.8 160L739.5 130L746.9 120L757.8 110L771.5 100L780.5 90L785.4 80L787.8 70L790 56.6L796.7 50L800 49.2L820 49.2L830 47.5L850 40.8L870 35.4L900 30.5L910 30.1L920 33.7L940 50.6L950 54.4L960 54.5L970 52L974.7 50L980 47L988.2 40L1000 16.9L1004.3 10L1012.3 0M1083.6 0L1087.1 10L1092.6 20L1096.8 30L1096.7 40L1091.9 50L1085.2 60L1080.3 70L1079.2 80L1081.8 90L1090 103.6L1100 113.3L1110 120.5L1120 129.3L1138.1 150L1157.7 170L1170 184.3L1180 191L1190 192.4L1200 189.1L1210 181.5L1221.9 170L1270 127L1275.9 120L1280 112.2L1290 85.4L1302.6 60L1304.2 50L1301.5 40L1295.8 30L1288.1 20L1280 13.1L1270 10.8L1260 12.3L1240 17.8L1230 18.5L1220 14.3L1216 10L1213.4 0M250.9 100L260 97.5L270 96.8L280 101L286.7 110L289.9 120L289.5 130L280 161.2L277.2 160L270 159.2L260 156.7L250 152.9L240 146L234.7 140L228.5 130L226.9 120L231.1 110L240 104.2L250 100.2ZM285.8 170L290 166.9L295.3 170L310 174.6L330 178.8L340 182.5L350 189.9L370 208.8L390 223.8L395.6 230L400 236.4L406.5 250L414.5 270L421 290L423.2 300L423.1 310L417.9 350L419.2 360L427.6 380L430 387.4L440 392.8L442.4 390L460 385.3L480 381L490 377.3L510 365.5L520 362.2L530 361.1L540 361.2L550 362.5L560 365.7L570 371.7L579.3 380L586.4 390L587.6 400L583.3 410L577.1 420L572.3 430L569.6 440L568.8 450L568.9 460L566.8 470L560 478.4L550 482.2L540 483.3L520 484.2L510 482.9L500 479.7L490 474.6L482.7 470L457 450L446.7 440L441.5 430L437.3 410L430 395.2L425.3 400L410 401.7L400 399.5L390 393.3L386.2 390L378.5 380L374.2 370L369 360L360 353L340 344.3L330 336.2L320 326.2L310 318.8L300 316.5L290 317.7L270 323.7L264.2 320L260 316.1L257.6 310L257.8 300L261 290L268.7 270L274.7 250L286.5 220L288.3 210L288.4 200L285.7 180ZM1258.2 250L1270 244.3L1280 241.5L1290 242L1300 248.7L1305.4 260L1311.8 280L1317 290L1344.6 330L1353.9 350L1361.7 370L1364.6 380L1365 390L1362.3 400L1353.5 420L1351 430L1353.2 440L1360 447.8L1370 453.8L1384.8 460L1389.8 470L1380 476.8L1370 477L1350 471.7L1320 466.1L1310 460.8L1302 450L1292.8 440L1279.7 430L1270 425.5L1220 412.5L1210 411.5L1200 414L1193.4 420L1190 425.2L1182.2 440L1180 442.6L1170 448.8L1160 450.4L1150 446L1146.6 440L1146.9 430L1149.7 420L1167.9 370L1180 332.6L1186.2 320L1194.1 310L1212.5 290L1229 270L1241.5 260L1250 254.9ZM254.7 360L260 353.7L270 356.4L271.6 360L272.7 370L270 375.9L266.5 380L260 383.5L250 382.3L248.2 380L248.4 370L250 366.4ZM952.5 900L950 894.1L949.2 890L954.1 880L960 873.1L961.7 870L965.1 860L964.4 850L959.4 840L940.9 820L930 806.3L920 797.2L884.5 780L875.3 770L870 762.5L866.2 760L860 757.8L850 752.9L840 745L830 735.2L823.8 730L820 727.7L810 723.9L800 722.9L790 724.2L770 731L760 732.5L750 729.2L740 719.8L726.5 700L708.8 680L702.1 670L694.1 650L688.2 640L674.2 620L670.4 610L670.3 600L673.3 590L680 576.6L690 565L700 556.7L710 549.6L720 545L730 543.8L740 541.8L742.7 540L746.2 530L741 520L720 506.5L711.8 500L690 484.8L680 475.1L676 470L670.3 460L668.3 450L670 442.1L670.7 440L679.5 430L690 422.8L700 418.9L710 418.9L720 423L732.2 430L740 433.1L750 434.8L780 436.4L810 434.5L820 435.9L840 444.4L850 446.3L870 446.3L880 447.3L900 451.6L910 452.6L920 452.1L940 449.3L950 452.2L960 460.4L968.3 470L974.9 480L978.3 490L978.4 500L976.1 510L965.4 540L959.8 550L950 563L943.1 570L940 575.8L936 580L941.5 590L970 611.2L980 618.1L984 620L1011.4 630L1020 636.3L1023.3 640L1027.1 650L1026.7 670L1027.8 680L1040.1 730L1040.2 740L1038.8 750L1040.2 760L1050 764.3L1060 766.6L1065.4 770L1070 771.5L1090 784.9L1100 793.2L1106.5 800L1113.8 810L1130 840.7L1138.8 850L1150 858.4L1160 867.7L1170 878.7L1179.2 890L1185.5 900M0 428.2L10 421.1L19.2 430L20 440L11.6 490L10 492.6L0 488.8M1440 496L1432.9 490L1425.7 480L1424.7 470L1435.5 460L1440 456.7M257.6 570L260 568.4L270 564.2L280 562.3L290 562.3L300 567.2L301.5 570L300.1 580L291.6 590L280 598.8L277.1 600L270 602.6L260 601.6L256.5 600L250 595.1L246.7 590L248.2 580L250 577.9ZM859.4 580L870 575.2L880 573.5L890 573.4L900 576L906.4 580L905.4 590L891.6 600L890 600.6L880 601.5L872.4 600L870 599L858.7 590ZM0 766.1L5.9 760L11.4 750L14.7 740L19.8 720L26.4 700L28.1 690L28 680L25.6 670L15.4 650L11.8 640L12.3 630L20 621.5L22.2 620L40 610.8L50 604.1L60 599.5L70 597.7L100 594.8L110 595L120 597.8L130 604.3L150 621.3L160 628.8L170 633.5L180 642.1L184.3 650L187.5 660L191 680L194.8 690L207.3 710L212.5 720L220.8 740L230 754.2L240 764.5L246.5 770L250 774.2L256.8 780L260 781.9L270 786L290 790.8L300 793.9L310 800L320 808.7L340 830L350 838.6L360 843.7L370 845.3L380 845.9L390 847.7L400 851.5L430 869.5L440 872.5L450 874.2L460 877.3L463.2 880L468.2 890L468.1 900M187.5 600L192.1 600L200 604L205 610L202 620L200 621.7L190 624.8L180 621.2L175.8 610L180 604.1ZM1238.5 730L1240 728.4L1250 725.7L1260 728.6L1261.7 730L1270 739.4L1275.8 750L1282.9 760L1290 768.1L1300 777.2L1304.6 780L1310 785.5L1317 790L1316.2 800L1310 804.6L1305 810L1300 812.8L1290 817.3L1280 818.3L1270 816.6L1260 814L1247.7 810L1240 806L1232.1 800L1226.6 790L1223.6 780L1221.9 770L1221.9 760L1224.4 750L1230 738.8ZM1440 865.5L1430 863.7L1420 858.7L1391.6 840L1379.9 830L1370 817.9L1362 810L1347.9 800L1340.8 790L1347.4 780L1350 778.5L1359.2 770L1370 763.5L1380 759.7L1390 761.8L1398.1 770L1403.8 780L1410 787.4L1414 790L1420 792.7L1430 796L1440 797.6M78 900L90 891.5L99.1 880L102.3 870L102.6 860L102 850L102.7 840L105.7 830L110 820.9L116.3 810L123.7 800L130 795.2L140 790.8L150 789.3L160 789.7L180 793.6L210 795.2L220 796.6L228.4 800L230 801.2L234.7 810L240.6 870L244 880L250.6 890L259.5 900"/>
<path fill="none" stroke="currentColor" stroke-width="1" d="M788.9 0L786.4 10L790 15.4L794.2 20L800 23.1L810 27.3L820 30.1L830 30.5L840 28.8L877.5 20L900 11.7L910 8.7L920 8.7L930 13.6L940 24L950 32.9L960 35.2L970 31.3L971.4 30L980 18.2L987.4 0M1107.7 0L1110 4.8L1114.1 10L1120 15.3L1130 16.4L1150 10L1160 9.5L1161.5 10L1170 19.3L1170.4 30L1167.1 40L1160 48.3L1157.2 50L1150 52.4L1140 52.9L1130 52.1L1120 53.3L1110 59.3L1100.6 70L1097.9 80L1101.4 90L1120 106.3L1130 119.8L1140 135L1150 146.8L1170 165L1180 171.6L1190 172.7L1200 167.8L1208.9 160L1230 136.9L1240.3 130L1250 124.9L1260 118.3L1267.7 110L1270 106.8L1273.3 100L1277.2 90L1280.1 80L1283.8 60L1283.8 50L1281.1 40L1280 38.2L1271.6 30L1270 29.1L1260 28L1230 34.1L1220 33.5L1210 29.4L1198.4 20L1192 10L1192.2 0M598.7 30L620 29.3L640 26.7L650 26.1L660 27L670 29.9L690 39.9L700 43.6L720 49.5L750 55.8L758.3 60L760 61.6L765.1 70L765.6 80L760 90L750 98.2L740 108L720 133.4L710 144.3L700 149.2L690 144.9L685.1 140L670 130.2L660 126.3L640 121.2L630 116.3L610 103.9L600 98.7L590 95.3L580 94.7L560 97.1L550 96.4L540 93.1L530 85.2L527 80L523.3 70L521.7 60L523.3 50L530 40.2L540 36.3L570 35.3L590 30.8ZM0 63.8L2 60L13.7 50L30 39.6L40 36.8L50 38.8L51.6 40L58.4 50L61 60L61.1 70L53.9 120L54.6 130L57.6 150L56.9 160L54 170L49.1 180L40 195.2L30 208.8L28.1 210L19.5 220L16.7 230L20 237.9L23.9 250L32.9 270L35.3 280L34.5 290L30 298.8L20 307.5L10 313L0 317M0 199L4.9 210L5 220L0 223.3M309.8 220L320 211.9L330 210.9L340 212L350 215L360 220.3L374.4 230L384.5 240L390.2 250L392.9 260L395.3 280L396.3 300L395 310L391.2 320L390 321.8L380 325.8L370 323.8L360 319.3L330 302.4L320 296L310 292.9L290 293.4L284.8 290L284 280L289.6 260L304.9 230ZM1269.2 260L1280 258.1L1285 260L1290 263.4L1298 280L1303.6 290L1318.5 310L1324.7 320L1330 330L1336.2 350L1346 370L1349.5 380L1350.3 390L1347.8 400L1340 414.4L1330 426.7L1320 431.3L1310 430L1300 425.2L1292.8 420L1281.7 410L1280 406.9L1270 401.4L1250 403.1L1240 401.9L1232 400L1210 392.6L1190 387.2L1184.8 380L1184.6 370L1188.8 350L1192.2 340L1196.6 330L1202.8 320L1210 311.6L1220 301.9L1230 294L1236.3 290L1246.3 280L1254.8 270L1260 265.9ZM528.3 390L530 387.8L540 382.2L550 386.1L553.6 390L552.1 400L550 402.9L540 406.3L532 400L530 396.4ZM513.7 430L520 426.7L530 424.2L540 427.6L544 440L543.1 450L540 455.4L535.3 460L530 462.2L520 463.3L508.7 460L501.2 450L502.6 440L510 432ZM1008 900L1002.5 890L998.5 880L998.1 870L995.9 860L990 853.3L988.5 850L979.3 840L957.9 820L950.3 810L946 800L944.7 790L945.5 780L947.6 770L946.6 760L937.9 750L920 732L917.5 730L910 726.1L900 722.6L890 719.9L880 718.3L870 718.4L860 719.7L850 719.4L830 712L820 709.8L810 709.1L780 711.3L770 711L760 707.5L750 698.9L737.6 680L720 659.6L699.3 630L693.1 620L689.4 610L689.3 600L693.5 590L700 582.6L710 575.5L720 571.9L740 568.3L750 564.4L758.7 560L769.1 550L771.2 540L769.6 530L766.5 520L760 509.1L750 500.9L733.9 490L730 485.7L722.8 480L720 476.2L710 473.3L700 471.6L690 464.3L687.2 460L687.4 450L690 447.1L700 444.3L710 448L713.4 450L720 455.9L730 456.3L750 450.9L760 449.4L775.1 450L790 453.1L810 459.5L820 461.9L830 463.6L850 465.9L860 467.8L880 473.4L890 474.3L910 474L920 475.1L930 477.1L938.3 480L940 481.5L946.1 490L945.9 500L944.8 510L944.8 530L941.5 540L940 541.8L930 546.7L920 544.9L910 541.3L900 539.3L870 540.7L860 537.3L850 528.5L840 524.1L830 526.5L826.5 530L820 538.6L807.8 560L805.1 570L806.7 580L813.2 590L820 594.6L831.3 600L840 602.7L856.3 610L870 614.9L880 617.9L890 620.1L900 620.6L920 617.6L930 618.8L932.2 620L938.7 630L939.1 640L940 642.8L950 649.9L960 651.3L970 654L980 660.2L988.1 670L1008.3 690L1010 692.1L1014.2 700L1017.1 710L1017.2 720L1014.9 730L1011.3 740L1009.2 750L1011.6 760L1017.1 770L1020 773.9L1025.2 780L1030 784.1L1040 788.9L1050 791.5L1070 794.7L1080 797L1090 802L1098.3 810L1104.3 820L1108.2 830L1110.9 840L1111.9 850L1109.6 860L1104.6 870L1103.6 880L1110 890.8L1120 896.4L1130 893.1L1132.9 890L1140 884.4L1150 885.8L1155.4 890L1160 895.4L1162.5 900M0 790.7L10 793.5L15.7 790L20 780.8L23.4 770L28.7 760L40 747.4L48.3 740L51.9 730L50.3 720L47.9 710L46.6 700L46.7 690L48 680L50 671.8L58.5 660L62.9 650L60.6 640L62.3 630L68.2 620L70 618.7L80 613.5L90 610.9L100 611.1L110 614.2L119 620L130 631.7L139.6 640L154.3 650L165.2 660L170.5 670L173.7 690L177.5 700L185.8 710L190 713.8L194.3 720L200 730.5L211.2 760L212.3 770L210 773.8L201.6 780L190 781.1L180 779.8L160 774.5L150 774L140 775.3L130 777.7L120 781.4L110 787.5L107.3 790L100.7 800L85.3 830L83.7 840L85.8 860L84.3 870L80 876.4L74.3 880L70 881.8L60 883.7L50 887.2L30.5 900M1242 760L1250 756L1260 759.5L1270 769.1L1278.4 780L1283.3 790L1280.1 800L1270 802.2L1260 801.1L1250 795.9L1244.4 790L1239.3 780L1238.1 770L1240 762.5ZM273.4 900L257.6 880L252.3 870L249.3 860L248.1 850L247.6 840L248.1 830L250.8 820L260 810.3L270 806.6L280 805.7L290 806.7L300 809.8L310 815.5L320 824.4L340 846.7L350 856.3L360 861.6L370 862.5L380 862.2L390 864L400 868.5L420 881.4L430 886.3L441.3 890L450 896.9L451.6 900M1416 830L1420 826.4L1430.1 830L1430 830.6L1420 833.4Z"/>
<path fill="none" stroke="currentColor" stroke-width="1" d="M863.1 0L870 0.8L877.2 0M630 40L640 37.9L650 37.2L660 38.8L663.1 40L680 50.3L690 54.7L711 60L730.3 70L737.3 80L736 90L730.5 100L723.3 110L720 114L710 122.9L700 126.3L690 123.7L670 113.1L660 111L650 110.2L640 107.5L625.6 100L611.8 90L599.5 80L590.5 70L591.5 60L603.3 50L620 43.6ZM1227.9 50L1240 47.6L1250 47.3L1257.7 50L1260 51.4L1265.2 60L1267.7 70L1267.9 80L1265.5 90L1260 100.3L1250 107.5L1240 109.8L1230 109.2L1220 107.5L1210 108.5L1208.8 110L1204.4 120L1201.6 130L1197.3 140L1190 147.1L1180 148.8L1170 145.5L1160 138.9L1151.6 130L1145.3 120L1140.6 110L1137.3 100L1135.6 90L1140 81.5L1141.5 80L1150 76.7L1180 69.9L1190 66.1L1200 59.5L1210 55.2L1220 52.3ZM549.3 70L550 67.4L554.2 70L550 70.4ZM0 122.9L10 121.2L20 123.4L30 130.1L37.9 140L40 143.6L42.4 150L43.2 160L40.6 170L32.9 180L30 183.1L20 185.2L10 178.6L0 168.2M349.3 240L360 243.3L367.2 250L370 255.6L371.5 260L371.4 270L370 274.7L365.3 280L360 282.5L350 280.6L340 272.5L338.1 270L335.2 260L336.5 250L340 244.9ZM0 264.8L10 269.2L10.5 270L10 273.1L0 277.8M1224.2 320L1230 315.7L1240 313L1250 314L1266.3 320L1270 322.1L1280 321.3L1290 311.3L1300 313.6L1304.6 320L1304.8 330L1300 333.5L1290 334.6L1280 340.5L1272.3 350L1250 371.3L1240 375.8L1230 373.1L1226.1 370L1220 363.1L1218 360L1214 350L1213.3 340L1216.2 330L1220 324.4ZM1314.4 380L1320 376.7L1330 379.2L1333.8 390L1331.5 400L1330 402.4L1321.5 410L1320 411L1310 410.2L1304.1 400L1306 390L1310 383.5ZM759.3 480L760 476.4L770 470.4L782.6 480L786.7 490L780 492.4L770 487L760 480.6ZM758.3 580L770 578L780 582.4L794.3 600L800 605.8L810 612.2L820 614.8L840 617.2L850 619.7L870 627L877.1 630L880 631.9L890 640L895.1 650L897.3 660L900.6 670L910 679.4L920 684.8L937.7 690L940 691.8L950 696.1L970 700.8L980 705L986.8 710L990 717.2L990.7 720L990 721.7L980 730.5L970 729L955.5 720L950 713.2L940 707.2L910 701.9L902.1 700L890 695.1L870 688.2L850 682.3L840 680.3L830 681.2L820 685.4L811.4 690L800 692.9L790 693L779.6 690L771.2 680L766.7 670L759.4 660L750 654.3L740 649.8L730 644.2L720 634.8L709.5 620L706.3 610L707.8 600L710 596.9L718.9 590L740 585.7L750 582.9ZM122.3 660L130 657.4L140 659.9L149.6 670L151.4 680L149.9 690L144 710L144.5 720L150 728L160 734.4L170 735.9L180 739.2L185 750L180 758.5L160 754.6L150 755.3L136.8 760L110 766.1L99.1 770L90 779.6L80 800.2L70 807.9L60 807.5L49.8 800L43.7 790L41.3 780L44.3 770L50 764.3L58.3 760L80 753.5L83.9 750L88.9 740L91.1 730L89.9 720L79.8 700L87.8 690L90 689.3L100 682.6L120 661.1ZM986.8 770L990 769.1L1000 773.6L1020 795.7L1027.8 800L1030 801.1L1062 810L1070 813.2L1080 818.4L1081.9 820L1087.8 830L1088.2 840L1082.2 850L1080 852.3L1070 860L1060 863.7L1055.6 860L1050 857.8L1020 835.8L1010 830.6L990 826.4L980 822.4L970 814.1L966.6 810L963.2 800L964.7 790L970 780.5L980 771.7ZM0 812.8L10 821L40 837L44.4 840L51.9 850L51.7 860L50 861.7L45 870L35.3 880L20 891.8L10 896.3L0 897.7M285.5 900L271.7 880L265.7 870L261.3 860L259.1 850L259.1 840L262.4 830L270 822.8L280 819.8L290 820.2L300 823.7L309.4 830L320 841.1L340 865.2L350 875.2L360 881L370 882.1L380 881.4L390 882.3L400 886.2L420.5 900M1043.8 900L1050 891.5L1060 882.1L1070 882L1080 889.2L1091.9 900"/>
<path fill="none" stroke="currentColor" stroke-width="1" d="M636.2 70L640 65.7L642.6 70L640 74.2ZM1235.4 70L1240 68.3L1244.5 70L1250 76.4L1250.9 80L1250 82.6L1240 89.6L1230 81.7L1229 80L1230 77ZM693.5 90L700 81.5L710 88.2L710.7 90L710 92.3L700 98.6ZM1168.2 100L1170 99.2L1171.6 100L1180 109.1L1180 112L1174.4 120L1170 121.1L1168.6 120L1162.5 110ZM744.8 610L760 607L770 608.7L780 617.4L790 627.5L800 633.2L810 636.5L820 637.6L840 635.3L850 636L860 638.6L863 640L871.4 650L870 655.5L864.1 660L860 660.7L850 658.3L840 654.4L830 652.1L820 652.3L810 654.5L800 654.6L793.1 650L780 638L770 632.6L762.3 630L741.6 620ZM0 832.8L14.5 840L20 843.5L27.6 850L30.3 860L25.9 870L20 876.2L15 880L10 882.7L0 884.2M298.4 900L290 888.4L280.8 870L277.1 860L275.5 850L278.7 840L280 838.8L290 837.3L300 841.4L310 849.9L320 860.3L335.7 880L341.9 890L345.9 900"/>
</svg>
