<svg xmlns="http://www.w3.org/2000/svg" viewBox="0 0 1440 480" aria-hidden="true">
<path fill="none" stroke="currentColor" stroke-width="1" d="M1354.3 60L1360 55.2L1370 50.9L1380 52L1387.4 60L1390 66.6L1390.9 70L1391.2 80L1390.5 100L1392.1 110L1397.4 120L1400 122.9L1404.2 130L1408.3 140L1411 150L1411.8 160L1408.6 170L1400 179.4L1390 183.9L1380 182.4L1376.8 180L1371.1 170L1370.4 160L1371.4 150L1371.4 140L1370 136.9L1364.4 130L1360 128L1340 123.4L1333 120L1330 115.2L1328.2 110L1330.8 100L1340 80L1345.6 70L1350 64.4ZM745.7 90L750 88.2L760 86.1L770 85.2L780 86L790 91.5L796.4 100L800 106.4L803.4 120L804.9 140L806.5 150L810.9 160L822.5 180L825.1 190L825.1 200L823.6 210L824.6 220L830 227.6L834.1 240L834 250L832.9 260L833.3 270L840.9 300L840 310.8L833.3 320L830 322.4L820 325.9L810 326.5L800 325.9L780 326.8L770 325.7L761.3 320L760 317.2L758.5 310L760.5 300L766.3 290L780 275.2L792.3 260L798.1 250L800 244.7L802.8 240L806.6 230L807.8 220L801.1 210L790 198.1L780 182.9L770 171.2L760 168L750 171.6L720 191.9L710 195L690 193.7L680 195.7L672.4 200L660 204.3L650 204.6L641.8 200L636 190L636.8 180L640 178.2L650 176L670 174.8L680 173.4L690 166.9L695.1 160L698.8 150L699.5 130L702.6 120L714.1 110L720 106.9L728.9 100L740 92.6ZM7 380L10 378.3L20 377.3L30 378.2L38 380L61.2 400L70 409.8L70 410.5L61.4 420L58 420L50 417.9L34 410L30 407L10 399.4L4.1 390ZM1243.2 410L1250 406.1L1256.5 410L1250 416.8ZM948.9 480L944 470L946.3 460L950 456.4L958.4 450L970 443.1L980 436.1L990 431.7L1000 432.6L1005.2 440L1008 450L1008 460L1005.5 470L1000.1 480"/>
<path fill="none" stroke="currentColor" stroke-width="1" d="M1367.8 10L1380 5.9L1390 6.5L1395.1 10L1400 16.6L1401.3 20L1403 50L1407.4 90L1411.4 100L1418.7 110L1424.7 120L1427.1 130L1429.1 150L1429.4 160L1427.4 170L1421.5 180L1410 190.6L1400 197L1390 199.1L1380 197.4L1370 192L1367.5 190L1359.3 180L1355.9 170L1353.9 160L1350 149.5L1340 142.1L1330 137.6L1320 131.7L1317.7 130L1309.2 120L1306.8 110L1309.2 100L1326 70L1348 40L1350 34.4L1352.6 30L1356.6 20L1360 15.9ZM777.9 60L780 59.4L790 59.2L800 63.7L807.2 70L814.4 80L818.3 90L829.2 150L833 160L838.2 170L842.1 180L847.6 210L858.6 240L858.8 250L851.2 270L851.4 280L855.6 300L856.3 310L853.7 320L850 324.8L844.7 330L827.9 340L810 352L800 354.5L790 352.8L770 347.6L760 343.8L750 337.6L742.9 330L740 321.8L739.4 320L739.4 310L740.5 300L742.4 290L747.1 280L750 276.7L770 262.3L772.3 260L780.1 250L783.5 240L784 230L781.8 220L780 216.2L776.9 210L770 198.8L760 191.5L750 192.7L740 198L730 205.1L720 211L710 214.3L690 216.2L680 218.4L660 225.1L650 226L640 223.9L630 218.7L620 211.8L610 207.5L600 207.4L580 210.4L570 211L565.2 210L560 206.8L554.8 190L550 181.1L546.6 170L545.4 160L548 150L550 147.3L560 140.3L570 139L590 149.4L600 149.7L620 147.2L630 147.6L650 155.2L660 156.9L670 154.3L675.2 150L679.3 140L679.9 120L682.2 110L690 101.8L693.4 100L710 94L720 88.4L740 75.2L750 70.5L770 62.6ZM0 64L10 71.5L20 80.5L27.5 90L31.2 100L30.8 110L20 142L14.6 150L10 154.1L0 153.8M281.2 190L300 187.2L310 190.5L320 198.9L329.9 210L337 220L339.6 230L336 240L330 247.3L320 255.6L313.8 260L309.1 270L306 280L300 288.9L290 290.1L280 285.3L273.6 280L270 274.3L268.2 270L263.9 250L258.3 240L245.2 220L241.5 210L241.3 200L250 190.8L280 190.2ZM0 216L2.2 220L10.8 230L21.3 240L27.9 250L26.9 260L20 264.3L10 264.7L0 260.8M503.5 230L510 226.4L520 223.5L530 222.8L540 224.4L545.9 230L543.1 250L546.4 260L550 264.5L551.4 270L550 273.4L541.1 280L530 286.7L529.3 290L522.9 300L520 302.1L513.1 300L510 296.7L507.9 290L510 283.4L516.4 280L520 275.7L526.4 270L520 268L510 268.5L500 267.1L492.7 260L490 254.3L489.2 250L493.3 240L500 233ZM925.5 480L923.9 470L925.9 460L930 453.1L932.3 450L940 443.8L959.7 430L967.2 420L970.2 410L970 400L968.2 390L965.1 380L955.6 360L952.1 350L952.5 340L960 331.1L962.1 330L970 327.7L990 325.1L1000 320.8L1010 312.6L1020 308.2L1030 309.4L1060.4 320L1070 324L1089.5 330L1100 334.1L1108.4 340L1110 342.2L1114.2 350L1116.2 360L1115.6 370L1111.8 380L1102.2 390L1100 391.4L1090 394.9L1070 397.7L1060 402.1L1050 411.2L1032.6 430L1027.7 440L1023.2 470L1020.4 480M0 348.1L10 345.4L20 344.2L30 345.1L40 348.5L50 353.1L60 360.3L70 370.9L80 379.6L94 390L100 395.9L110 403.4L120 406.6L130 408.2L140 411L150 418L151.8 420L157.1 430L157.2 440L152.1 450L150 452.7L140 460.8L130 462.6L120 461.7L110 459.5L100 455.3L80 445.2L70 442.3L30 435.4L20 433.2L10 429.4L0 422.6M1225.5 390L1240 385.3L1250 383.2L1260 383.5L1270 388L1272.3 390L1279.1 400L1279.7 410L1274.1 420L1260 431.9L1250 436.3L1240 437.1L1230 434.5L1220.7 430L1211 420L1205.6 410L1203.4 400L1210 395.4L1220 392.3ZM215.9 440L220 436.2L230 437.8L232.5 440L238.8 450L236.3 460L230 463.1L223.6 460L220 457.2L215.7 450Z"/>
<path fill="none" stroke="currentColor" stroke-width="1" d="M654.2 10L660 6L670 2.7L680 5L685.5 10L689.7 20L691.4 30L690.6 40L690 41.1L680 48.3L670 48.1L660 45L650.7 40L644.1 30L645.9 20L650 14.5ZM1440 255L1430 253.6L1420 251.2L1410 248.1L1400 240.3L1395.5 230L1389.4 220L1376.7 210L1370 206.1L1360 198.5L1351.4 190L1345.6 180L1342 170L1337.3 160L1326.8 150L1311.4 140L1299.1 130L1291 120L1287.6 110L1289.5 100L1294 90L1305.2 70L1318.8 50L1324.6 40L1327 30L1328.1 10L1332.4 0M1440 98.4L1430 87.8L1424.8 80L1421.5 70L1420.3 60L1421.1 50L1423.8 40L1430 24.5L1435.2 20L1440 16.8M0 23.6L18 50L40 75.8L47.5 90L50 100L48.7 110L38.5 130L35.8 140L35.4 150L36.7 160L41.2 180L41 190L33.6 210L35.4 220L46.9 240L50.6 250L52.2 260L52.3 270L50 287.4L48.9 290L49.5 300L51.4 310L54.2 320L59.5 330L80 355.1L90 364L120 378.2L140 389.2L150 395.4L170 412.1L180 415.7L187.2 410L190 406.3L193.2 400L200 390.9L210 389.3L220 396.4L250 428.3L256.8 440L260.7 450L262.8 460L263 470L259.7 480M450.6 480L460 468.8L470 458.2L491.4 440L500 430.5L514.3 410L516.4 400L511 380L511.3 370L517.5 350L518.1 340L512.5 330L510 328L483.9 300L476.4 290L470 277L465.8 270L462.2 260L463 250L467.9 240L477.1 230L500 214.5L510 209.3L520 205.1L528.7 200L530 198.3L534 190L534 180L531.9 160L532.9 150L537.7 140L547.6 130L555.7 120L558.9 110L560.7 100L563.6 90L570 82.1L577.1 80L590 79.5L600 80.7L610 85.7L613.7 90L624.3 110L630 114.9L640 119.9L650 121L660 106L662.7 100L670 90.6L680 82.3L688.2 80L710 71L720 64.2L729.5 60L760 51.9L780 45.5L790 44.1L800 45.5L810 50.6L820.7 60L829.7 70L834.4 80L836.2 90L837.1 100L839.2 110L846.6 130L852.4 150L859.6 170L860.3 180L859.5 190L859.7 200L861.6 210L865.1 220L873.7 240L876 250L875.3 260L872.1 270L870.1 280L871.1 290L873.8 300L875.7 310L874.3 320L869.4 330L860 338.9L839.6 350L829.2 360L820 371.8L810 379.8L800 381.6L790 379.4L780 374.1L774.8 370L758.7 360L740 349.6L730 341.8L722.6 330L719.9 320L719.6 310L720.8 290L722 280L725.7 270L738.8 250L740 245.3L743.6 240L740 234.9L730 230.7L720 231.5L700 234.9L687.4 240L676.6 250L670 257.9L660 259.9L627.5 240L620 236L610 232.4L600 232L590 235L583.3 240L579.7 250L582 260L586.4 270L589.7 280L589.6 290L585.2 300L580 306.8L570 313.9L558.7 320L552.2 330L553.7 350L552.5 360L549.4 370L534.8 400L537 410L551.8 430L553.3 440L551.1 450L550.4 460L560 464.7L570 470.6L578.1 480M217.3 120L220 113.2L225.2 120L220 124.5ZM229 150L230 143.6L240 141.1L270 156.7L280 158.9L290 157.7L300 158.6L310 164.2L320 173.9L340 197.9L350 206.4L355.2 210L364.5 220L367.8 230L363.4 240L360 242.4L350 251.8L342.3 260L334.4 270L329.1 280L320 299.4L310 311.6L300 316.8L290 317.6L270 314.1L260 314.5L250 316.9L240 317.5L230 313L227.1 310L225.3 300L230.2 280L230.1 270L227.1 260L220 246.3L212.3 220L199.7 190L202.2 180L210 174.7L215.2 170L224.3 160ZM425.5 260L430 250.5L433.2 260L430 261.1ZM0 285.9L13.3 290L19.3 300L12.4 310L0 320.1M901.9 480L908.9 460L913.2 450L920 439.3L931.5 430L941.1 420L943.6 410L942.6 400L939.8 390L926.5 360L926.6 350L929.4 340L933.8 330L943.5 320L950 315.9L960 311.9L980 305.7L990 299.5L1000 291L1010 285.4L1020 284.9L1040 297L1050 302.2L1070 309.1L1080 311.2L1090 312L1100 311.2L1120 307.6L1130 306.9L1140 308.8L1142 310L1148.7 320L1149.6 330L1149.2 340L1151 350L1157.6 360L1160 361.8L1170 365.4L1180 363.2L1190 356.7L1200 353.7L1210 356.2L1230 366.2L1240 367.8L1260 368.8L1270 371L1280 375.8L1286.7 380L1290 383L1300 389.2L1310 393.2L1320 396L1327.7 400L1330 403.8L1332.3 410L1331.7 420L1330 424.1L1320 425.5L1310 424L1300 424.4L1290 427.9L1260 446.4L1250 449.7L1240 450.7L1220 448.2L1210 445.6L1201.3 440L1190 430L1180 424.9L1170 424.5L1150 430.6L1140 431.4L1130 430.8L1120 429.4L1100 424.5L1090 421L1080 419.6L1078.2 420L1070 422.4L1060 430L1053.8 440L1051.3 450L1053 460L1057.3 470L1060 478.1L1061.4 480M1372.2 480L1356.7 470L1344 460L1340 453.4L1336.4 450L1334.5 440L1340 431.4L1343.1 430L1360 428.3L1370 428.1L1380 429L1390 432.8L1408.6 450L1420.8 460L1428 470L1425 480M0 449.7L10 451.9L30 450.3L40 450.5L50 451.5L60 453.9L73.1 460L90 473.1L100 476.8L121.2 480M160.8 480L170 463.5L180 454.7L190 454.9L200 462.2L207.5 470L219.6 480"/>
<path fill="none" stroke="currentColor" stroke-width="1" d="M6 0L14.5 10L30 31.9L47.4 50L50 53.7L52.9 60L63.1 90L65.5 100L65.4 110L60.8 120L53.4 130L50 137.2L49 140L48.4 150L50 160L55.7 180L57.7 190L58.4 210L60 220L64.8 240L68 260L76.4 300L82.1 320L86.8 330L90 335.3L93.2 340L100 347.1L103.6 350L110 353.7L130 362.7L160 372.6L170 373.5L190 366.4L200 363.9L210 363.7L220 366.5L230 375.7L240.2 390L261.1 410L268.4 420L280 438.3L296.5 460L310 473.3L318.4 480M431.5 480L440 472.1L450 460.5L456.9 450L461.1 440L465.4 420L468.9 410L470 407.8L480 395.3L482.8 390L486.1 380L494.4 360L497.8 350L497.5 340L492.9 330L484.6 320L480 315.5L470 307.4L460 300.4L450 294.4L420 283.7L412.1 280L397.7 270L390 263.7L380 260.4L370 261.4L360 266.2L355.8 270L347.7 280L336.2 300L329.7 310L322.1 320L310 330.3L300 334.5L290 336.4L270 338.6L250 343.6L240 344.6L230 343.2L220 338.6L210 332.1L201.2 320L199.3 310L200.5 300L203.4 290L205.1 280L204.5 270L195.1 230L191.9 220L176.4 190L172.6 180L171.8 170L179.8 160L190 154.2L195.6 150L196.8 140L192.5 130L186.9 120L183.1 110L184.4 100L194.4 90L200 86.8L210 82.5L220 79.5L230 78.9L232.3 80L240 87.1L250 101.2L260 109.5L270 98.2L280 93.1L289.5 100L293.9 120L300 127.9L300.9 130L340 175.2L350 183.3L370 191.4L380 198.9L390 211.8L400 221.3L410 223L420 219.6L430 212.6L440 209.8L460 214.6L470 215L480 212.3L490 206.9L502 200L515.3 190L519.8 180L520.3 170L519.8 150L521.5 140L528.4 130L537.8 120L542.8 110L547 80L550 72.7L551.8 70L560 63.8L570 62.2L580 61.9L590 60.2L600 55.4L607.4 50L614.9 40L622.1 20L629.8 10L641.8 0M735.3 0L732.8 20L735.5 30L740 34.1L750 38.1L760 37.5L780 32.4L790 30.5L800 30.3L810 32.2L820 37.9L840 59.1L847.5 70L851.2 80L855.7 100L864.3 130L870 144.2L880.8 160L883.6 170L875.2 190L873.2 200L874.5 210L878.2 220L888.1 240L891.6 250L893 260L892 280L893.9 290L900 302.4L910 311.5L920 311.5L930 307L950 295.7L960 292.4L970 289.9L980 286L1010 265.7L1020 263.2L1030 267.1L1043 280L1050 285.9L1056.9 290L1070 294.5L1080 295.7L1090 295L1100 293.2L1113.7 290L1130 284.8L1142.1 280L1150 273.7L1153.7 270L1160.3 260L1170 255.9L1180 258.5L1180.9 260L1180.2 270L1175.2 280L1173 290L1174.3 300L1180 310.1L1190.3 320L1200 327.2L1217.7 340L1230 348.1L1240 352.5L1250 354.7L1270 357.1L1282.9 360L1300 365.9L1320 370.9L1330 374.2L1342.2 380L1350 385.3L1360 390.8L1370 393.7L1380 393.2L1390 395.6L1393.6 400L1411.3 430L1419.4 440L1430 447.3L1440 450.7M1069.6 0L1075.1 10L1075.7 20L1073.3 30L1076.3 40L1080 42.1L1084.1 40L1089.9 30L1091 20L1094.4 10L1103.7 0M1308.7 0L1307 10L1306.4 30L1303 40L1295.5 50L1275.7 70L1269.8 80L1264.9 100L1264.2 110L1266.9 120L1270 124.3L1275.5 130L1310 153.2L1320 160.6L1327.5 170L1340 197.3L1350 209.5L1360.5 220L1365.8 230L1370 250L1376.5 270L1381.3 290L1385.3 300L1390 307.4L1392.6 310L1400 315.3L1410 320.4L1420 324.1L1430 326.2L1440 318.1M593.8 480L590 469.7L585.6 460L584 450L585.5 440L588.1 430L589.2 420L584 410L580 406.8L570 402.4L566.8 400L563.3 390L565 380L568.2 370L575.7 350L580 340.7L586.9 330L590 326.3L600 309.8L603.9 300L610 277.8L615.2 270L620 266.8L630 268.7L640 274L650 280.5L660 285L670 286.9L680 286.4L690 287L692.2 290L696.6 300L702.3 320L706.3 330L711.1 340L720 355.3L730 363.3L742.7 370L750 376.4L753.3 380L760 392.3L765.3 400L770 403.9L780 407.8L790 410.1L800 416.6L802.1 420L804.6 430L805.6 440L808.1 470L807.5 480M845.3 380L850 372.9L860 371.5L867.1 380L869.6 390L870.2 400L875.7 410L880 413.1L890 426.2L892.1 430L894.4 440L892.7 450L890 455.1L884.6 460L880 462.8L870 463.3L864.9 460L860 455.3L857.7 450L854.9 440L853.4 430L852.9 410L850 404.7L844.2 390ZM1127.5 480L1126.7 470L1130 465L1136.3 460L1140 458.5L1160 456.1L1170 457L1175.2 460L1180 464.7L1190 477.8L1195.6 480M6.9 480L20.7 470L30 466.6L40 465.5L50 466.7L57.3 470L60 472.2L66 480M1203.1 480L1210 477.4L1220 471.9L1225.7 470L1230 469.2L1240 469L1257.5 470L1270 471.5L1280 474.7L1290.1 480"/>
<path fill="none" stroke="currentColor" stroke-width="1" d="M32.1 0L40 4.4L53.5 10L70 21L78 20L80 19.2L81.6 10L88 0M536.1 0L530 10.3L522.7 20L522 30L531.2 50L532.2 60L528.8 90L526.3 100L520 109.7L505.3 120L500 126.1L496.9 130L494.4 140L500 152.9L502.4 160L503.5 170L500.8 180L491.9 190L490 191.3L480 196.8L470 198.5L460 196.2L448 190L435.5 180L429.2 170L430.2 160L435.3 150L439.1 140L438.3 130L434.1 120L430 113.5L425 110L420 107.6L410 109.1L408 110L400 115.2L394.2 120L390.2 130L391.5 140L395.3 150L394.9 160L390 161.9L360 162.1L350 159.3L340 151.9L330 138.5L318.4 110L313.5 100L300 76.8L290 66.3L281.2 60L272 50L270 41.7L268.8 40L260 35.3L240 41.7L230 46.4L210 59.8L200 65.2L180 75.1L170 78.2L160 77.9L150 74.5L142.4 70L130.3 60L123.3 50L123.7 40L130.8 30L140 23.4L150 19L160 13L163.1 10L170.1 0M781.1 0L786.7 10L800 11L810 10.8L830 7L840 7L843.3 10L843.7 20L843.2 30L845.2 40L860 64.6L870 87.9L877.2 100L884.8 120L890 128.3L909.8 140L915.2 150L914.9 160L910 179.2L904.9 190L896.7 200L896.2 210L900 219.1L909.1 230L920.6 250L931 260L953.3 270L960 272L970 272.7L980 269.7L993.2 260L1010 243.5L1020 240.3L1030 243.8L1040 253.5L1050 264.6L1060 272.9L1070 277.1L1080 278L1090 276.6L1100 273.7L1108.7 270L1118.1 260L1119.5 250L1119.2 240L1119.8 230L1122.3 220L1127.5 210L1130 206.9L1140 204.1L1150 208.9L1161.8 220L1170 225.2L1190 231.9L1201.2 240L1205.1 250L1203.6 260L1195.3 280L1192.7 290L1193.9 300L1200.9 310L1210 317.3L1230 330.8L1240 335.8L1250 339.4L1260 341.1L1280 342.7L1290 344.1L1310 348.4L1330 356.1L1350 366L1360 369.2L1370 369.7L1380 368.2L1390 365.9L1400 362.8L1406.1 360L1409.2 350L1405.6 340L1395.8 330L1390 325.8L1380 315.8L1376.1 310L1364.1 280L1360 273.5L1350 264L1343.3 260L1331.1 250L1330 248.3L1325.6 240L1323 230L1322.7 210L1321.8 200L1319.6 190L1314.8 180L1310 173.6L1305.5 170L1280 155.7L1270 149L1260 140.8L1252.2 130L1248.4 120L1246.5 110L1244.6 90L1241.4 70L1245.2 60L1270 45.9L1278 40L1283.8 30L1282.8 20L1280 16.7L1270 12L1260 10.5L1250 10.7L1240 12.7L1219.5 20L1211.5 10L1212.9 0M1034.5 0L1040 2.8L1045.3 10L1045.8 20L1041.1 40L1042.2 50L1047.5 60L1050 62.6L1060 68.3L1070 72.9L1080.4 80L1090 87.6L1100 89.5L1110 87L1126.5 80L1140 72.4L1142.9 70L1150 61.2L1156.9 50L1161.7 40L1163.1 30L1160.9 20L1155.7 10L1151.8 0M85.8 50L90 46.7L93.6 50L100 54L104.3 60L108.9 70L116 90L124.9 100L137.3 110L145.1 120L146.8 130L143.8 140L138.3 150L134.1 160L136.5 170L150 182L160 193.6L170.5 210L179.4 230L182.6 240L187.3 260L187.9 270L186.3 280L178.8 300L177.8 310L178.6 330L175.8 340L170 345.5L160 350L150 351L140 349.9L130 346.8L120 341.5L110 332.5L100.8 320L95.3 310L90 296.4L85.8 280L82 260L81.2 250L82 220L81.3 210L79.3 200L75.9 190L70 177.4L64.1 160L62.6 150L65 140L79.5 120L82.3 110L81.5 100L76.3 80L75.8 70L80 53.8ZM1028.2 160L1030 158.5L1040 155L1050 157.9L1051.8 160L1053.9 170L1053.5 180L1051.7 190L1050 194.2L1043.7 200L1040 202.3L1030 201.6L1028.2 200L1021.7 190L1020.4 180L1022.3 170ZM366.9 290L370 287.4L380 284.2L390 285.5L420 297.3L430 302.4L441.8 310L450 316.5L470 328.7L471.4 330L476.4 340L473.8 350L460 367L450 388.1L445.8 400L443.5 410L442 440L438.1 450L430 459.7L420 465.9L410 469.2L400 469.6L390 467.2L370 458L360 455.4L340 454.6L330.8 450L326.3 430L320 424.1L311.4 420L300 416.2L290 409.8L270.1 390L261.7 380L259.3 370L267.6 360L280 355.5L290 353.2L300 350L310 345.9L320.4 340L332.3 330L350 307.3L360 296ZM607.3 480L600.6 460L599.5 450L601.1 440L605.8 420L605.1 410L600 398.8L593.3 390L589.2 380L590.3 370L593.6 360L608 330L620 302.2L622.3 300L630 294.9L640 296.2L670 306L680 311.5L690 324.7L697.8 340L702 350L710 384.9L713.8 390L720 395.3L730 400.6L740 408.2L741.5 410L757.1 420L779.4 430L787.7 440L790.2 450L790.8 460L789.6 470L786.3 480M1440 420.2L1432 410L1429.9 390L1432.1 380L1440 375.6"/>
<path fill="none" stroke="currentColor" stroke-width="1" d="M505.7 0L498.8 10L497.2 20L499.5 30L508.6 50L511.8 60L512.1 70L509.4 80L502.9 90L490 103.3L480 112L470 117.6L460 118L451.7 110L442.7 90L440 87.3L430 83.5L420 84L410 87L400 91.3L390 94.3L380 95.3L370 95L360 95.8L350 97.5L340 97.3L330 92.5L320 79.6L310.7 60L307.3 50L305.8 40L306.2 30L308.5 20L310 16.4L320 8.9L330 8.1L337.2 0M889.6 0L883.1 10L874.2 20L870 26.2L868.3 30L867.4 40L869.7 50L877.8 70L880 74L885.4 80L890 83.9L900 87.2L921.1 90L930 95.9L933.7 100L940 108.1L947.9 120L952 130L953.9 140L954.5 150L948.2 160L940 168L938.9 170L937.7 180L942.4 190L950 201.3L957.4 210L960 217.7L961.6 220L960 227.1L959.1 240L960 241.8L967.4 250L970 251.1L972.9 250L980 244.4L982.6 240L983.7 230L981.9 220L981.2 210L983.9 190L983.9 180L987.9 170L990 168.8L996.7 160L1000 156.8L1004.6 150L1010 144.5L1020 137.1L1035.5 130L1045.3 120L1043.6 110L1030 96.8L1025.3 90L1022.1 80L1020.4 70L1017 60L1010 51.3L1000 45.5L978.7 40L970.7 30L968.6 20L970 13.6L975.5 10L980 9.2L986.5 0M937.5 0L940 3.7L949.2 10L960 12.2L967.6 10L969.4 0M1160.5 100L1170 95.1L1180 92.2L1190 93.3L1200 95.3L1210 96.4L1220 98.8L1221.4 100L1228.8 110L1230 112.9L1236.8 140L1240 149.1L1249.2 170L1252 180L1258.1 190L1260 191.6L1266.3 200L1260 203.5L1250 203.5L1240 207.5L1238.9 210L1230 219.7L1220 219.6L1210 214.4L1200 206.8L1193.8 200L1188.4 190L1188 180L1189.6 170L1188.9 160L1180 155.4L1170 157.2L1160 160.4L1150 162.5L1140 159L1134.5 150L1128.8 130L1127.3 120L1130 114.1L1133.6 110L1140 107.2L1160 100.2ZM1078 180L1080 177.2L1090 175.6L1100 180L1103.7 190L1100 199.9L1090 205.1L1080 196.6L1077.2 190ZM104.8 200L110 193.5L120 192.9L130 196.3L136.7 200L140 202.2L150 212.5L160 228.6L165.6 240L169.6 250L171.2 260L169.2 270L160 283.8L154.3 290L150 300L152.9 320L150 326.1L140.7 330L139.7 330L130 324.6L120 314.2L110 302L103.6 290L100 280.9L97.8 270L96.6 260L96.1 250L97.6 230L101.2 210ZM1075 230L1080 228.5L1083.6 230L1090 238.2L1090 241.3L1086.1 250L1080 253.4L1070 252.2L1066.8 250L1062.9 240L1070 231.7ZM1282.2 250L1290 244.7L1300 244.1L1310 252.5L1320 264.1L1330 270.7L1340 275.6L1346.8 280L1350 282.9L1354.6 290L1358.6 300L1363.4 320L1368.9 330L1372.4 340L1370 343L1360 345.5L1350 341.3L1337.9 330L1325.5 320L1320 316.4L1310 312.8L1300 313L1290 314.6L1280 314L1260 306.3L1250 305.2L1230 307.5L1220 305.2L1212.8 300L1210 294.3L1208.9 290L1211.5 280L1220 265.9L1227.9 260L1230 257.6L1240 259.7L1250 263.9L1260 263.6L1270 258.2L1280 251.3ZM372.4 310L380 305.5L390 302.7L400 302.6L410 305L420.5 310L430 318.6L431.4 320L436.6 330L437.9 340L437.2 350L432.7 380L430 390.2L425.9 400L423.3 410L421.1 430L416.4 440L410 445.1L400 448.2L390 447.2L380 442.9L374.9 440L365.8 430L359.8 420L350 410.3L340 405L320 397.2L310 391.9L307.2 390L301.5 380L304.1 370L316.5 360L340 348.9L349.1 340L354.6 330L361.2 320L370 311.6ZM623 480L616.4 460L614.8 450L616.3 440L620 428.4L623.6 420L623.3 410L611.5 390L610 386.2L607.7 380L607.7 370L610.7 360L615.3 350L620 341.6L630 326.2L640 319L650 318.2L660 319.9L670 324.2L676.7 330L680 333.7L683.8 340L687.7 350L688.9 360L687.8 370L684.5 390L681.7 400L680 403.3L667.9 420L670.7 430L680 434.6L690 436.3L700 435.5L720 428.4L730 426.8L740 428.1L750 431.9L764.1 440L771.6 450L773.2 460L771.9 470L768.1 480"/>
<path fill="none" stroke="currentColor" stroke-width="1" d="M480.3 0L479.2 10L479.8 20L482.5 30L491.1 50L492.3 60L490 67.3L487.8 70L480 75L470 73.8L463.5 70L450 65.6L430 64.5L400 65.5L390 63L386 60L385.8 50L397 30L406.5 10L410 3.8L413.8 0M900.6 40L910 35.6L920 34.3L930 36L937.5 40L940 43.5L943.3 50L941.3 60L940 60.9L930 63.9L920 65.2L910 66L900 63.8L896 60L894.1 50L900 40.5ZM967.3 80L970 78L980 75.5L990 78.5L990.9 80L990 95.1L988.6 100L990 102.5L991.3 110L991 120L990 121.2L980 121.2L979.3 120L975.8 100L969.3 90ZM117.8 240L120 232.5L130 231.9L140 242.3L144.6 250L144.9 260L140 264.9L130 267.3L120 260.2L117.6 250ZM383.6 320L390 316.9L400 315.5L410 318.1L412.9 320L420.4 330L421.6 340L419.9 350L416.8 360L412.7 370L410 374.5L403.5 380L400 382.5L390 384.9L380 383.5L372.3 380L370 376.5L367.5 370L370 340L373.5 330L380 322.5ZM634.6 350L640 345.1L650 341.4L660 343.8L665.2 350L665.9 360L663.3 370L659.3 380L650 389.6L640 391.2L630 386.4L625.4 380L624 370L627.1 360L630 354.9ZM729 450L740 447.5L745.9 450L750 456.3L751 460L750 462.9L740 470L730 465.5L724.9 460ZM644.4 480L650 470.7L660 463.6L670 461.1L680 460.2L690 461.3L700 465.8L704.9 470L707.8 480"/>
</svg>
